<mxfile host="app.diagrams.net" modified="2022-04-29T23:44:06.312Z" agent="5.0 (Windows NT 10.0; Win64; x64) AppleWebKit/537.36 (KHTML, like Gecko) Chrome/100.0.4896.127 Safari/537.36" etag="CMWVPdtwrrJ80xfStV3s" version="17.5.0" type="github">
  <diagram id="QyEJgXoEOEQSnqgT4BB6" name="Page-1">
    <mxGraphModel dx="2585" dy="1340" grid="1" gridSize="10" guides="1" tooltips="1" connect="1" arrows="1" fold="1" page="1" pageScale="1" pageWidth="3300" pageHeight="2339" math="0" shadow="0">
      <root>
        <mxCell id="0" />
        <mxCell id="1" parent="0" />
        <mxCell id="gb70pEuvpdJBa86swqlE-16" value="" style="edgeStyle=orthogonalEdgeStyle;rounded=1;orthogonalLoop=1;jettySize=auto;html=1;fontFamily=Verdana;fontSize=12;" parent="1" source="gb70pEuvpdJBa86swqlE-2" target="gb70pEuvpdJBa86swqlE-9" edge="1">
          <mxGeometry relative="1" as="geometry" />
        </mxCell>
        <mxCell id="gb70pEuvpdJBa86swqlE-17" value="" style="edgeStyle=orthogonalEdgeStyle;rounded=1;orthogonalLoop=1;jettySize=auto;html=1;fontFamily=Verdana;fontSize=12;" parent="1" source="gb70pEuvpdJBa86swqlE-2" target="gb70pEuvpdJBa86swqlE-13" edge="1">
          <mxGeometry relative="1" as="geometry" />
        </mxCell>
        <mxCell id="gb70pEuvpdJBa86swqlE-18" value="" style="edgeStyle=orthogonalEdgeStyle;rounded=1;orthogonalLoop=1;jettySize=auto;html=1;fontFamily=Verdana;fontSize=12;" parent="1" source="gb70pEuvpdJBa86swqlE-2" target="gb70pEuvpdJBa86swqlE-11" edge="1">
          <mxGeometry relative="1" as="geometry" />
        </mxCell>
        <mxCell id="gb70pEuvpdJBa86swqlE-19" value="" style="edgeStyle=orthogonalEdgeStyle;rounded=1;orthogonalLoop=1;jettySize=auto;html=1;fontFamily=Verdana;fontSize=12;" parent="1" source="gb70pEuvpdJBa86swqlE-2" target="gb70pEuvpdJBa86swqlE-15" edge="1">
          <mxGeometry relative="1" as="geometry" />
        </mxCell>
        <mxCell id="gb70pEuvpdJBa86swqlE-2" value="&lt;span style=&quot;color: rgb(51 , 51 , 51)&quot;&gt;Mapa conceitual da Aula 1 até Aula 8 de Projeto e Desenvolvimento de Aplicações para Web&lt;/span&gt;" style="rounded=1;whiteSpace=wrap;html=1;fontStyle=1;fontFamily=Verdana;" parent="1" vertex="1">
          <mxGeometry x="1640.02" y="1201" width="280" height="96" as="geometry" />
        </mxCell>
        <mxCell id="gb70pEuvpdJBa86swqlE-26" value="" style="edgeStyle=orthogonalEdgeStyle;rounded=1;orthogonalLoop=1;jettySize=auto;html=1;fontFamily=Verdana;fontSize=12;" parent="1" source="gb70pEuvpdJBa86swqlE-6" target="gb70pEuvpdJBa86swqlE-25" edge="1">
          <mxGeometry relative="1" as="geometry" />
        </mxCell>
        <mxCell id="gb70pEuvpdJBa86swqlE-6" value="&lt;font style=&quot;font-size: 18px&quot;&gt;Aula 1&lt;/font&gt;" style="rounded=1;whiteSpace=wrap;html=1;fontFamily=Verdana;" parent="1" vertex="1">
          <mxGeometry x="1660.02" y="1097" width="100" height="50" as="geometry" />
        </mxCell>
        <mxCell id="_syeEbmytFuCdj93ZX4R-76" value="" style="edgeStyle=orthogonalEdgeStyle;rounded=1;orthogonalLoop=1;jettySize=auto;html=1;fontFamily=Verdana;fontSize=12;entryX=0.5;entryY=1;entryDx=0;entryDy=0;" edge="1" parent="1" source="gb70pEuvpdJBa86swqlE-9" target="_syeEbmytFuCdj93ZX4R-41">
          <mxGeometry relative="1" as="geometry">
            <mxPoint x="1980.02" y="1122" as="targetPoint" />
          </mxGeometry>
        </mxCell>
        <mxCell id="gb70pEuvpdJBa86swqlE-9" value="&lt;font style=&quot;font-size: 18px&quot;&gt;Aula 2&lt;br&gt;&lt;/font&gt;" style="rounded=1;whiteSpace=wrap;html=1;fontFamily=Verdana;" parent="1" vertex="1">
          <mxGeometry x="1800.02" y="1097" width="100" height="50" as="geometry" />
        </mxCell>
        <mxCell id="gb70pEuvpdJBa86swqlE-10" value="&lt;font style=&quot;font-size: 18px&quot;&gt;Aula 6&lt;/font&gt;" style="rounded=1;whiteSpace=wrap;html=1;fontFamily=Verdana;" parent="1" vertex="1">
          <mxGeometry x="1660.02" y="1347" width="100" height="50" as="geometry" />
        </mxCell>
        <mxCell id="gb70pEuvpdJBa86swqlE-11" value="&lt;font style=&quot;font-size: 18px&quot;&gt;Aula 5&lt;br&gt;&lt;/font&gt;" style="rounded=1;whiteSpace=wrap;html=1;fontFamily=Verdana;" parent="1" vertex="1">
          <mxGeometry x="1800.02" y="1347" width="100" height="50" as="geometry" />
        </mxCell>
        <mxCell id="gb70pEuvpdJBa86swqlE-12" value="&lt;font style=&quot;font-size: 18px&quot;&gt;Aula 3&lt;/font&gt;" style="rounded=1;whiteSpace=wrap;html=1;fontFamily=Verdana;" parent="1" vertex="1">
          <mxGeometry x="1970.02" y="1186" width="100" height="50" as="geometry" />
        </mxCell>
        <mxCell id="gb70pEuvpdJBa86swqlE-13" value="&lt;font style=&quot;font-size: 18px&quot;&gt;Aula 4&lt;br&gt;&lt;/font&gt;" style="rounded=1;whiteSpace=wrap;html=1;fontFamily=Verdana;" parent="1" vertex="1">
          <mxGeometry x="1970.02" y="1257" width="100" height="50" as="geometry" />
        </mxCell>
        <mxCell id="gb70pEuvpdJBa86swqlE-14" value="&lt;font style=&quot;font-size: 18px&quot;&gt;Aula 8&lt;/font&gt;" style="rounded=1;whiteSpace=wrap;html=1;fontFamily=Verdana;" parent="1" vertex="1">
          <mxGeometry x="1490.02" y="1186" width="100" height="50" as="geometry" />
        </mxCell>
        <mxCell id="gb70pEuvpdJBa86swqlE-15" value="&lt;font style=&quot;font-size: 18px&quot;&gt;Aula 7&lt;/font&gt;" style="rounded=1;whiteSpace=wrap;html=1;fontFamily=Verdana;" parent="1" vertex="1">
          <mxGeometry x="1490.02" y="1257" width="100" height="50" as="geometry" />
        </mxCell>
        <mxCell id="gb70pEuvpdJBa86swqlE-20" value="" style="edgeStyle=orthogonalEdgeStyle;rounded=1;orthogonalLoop=1;jettySize=auto;html=1;fontFamily=Verdana;fontSize=12;entryX=1;entryY=0.5;entryDx=0;entryDy=0;exitX=0;exitY=0.5;exitDx=0;exitDy=0;" parent="1" source="gb70pEuvpdJBa86swqlE-2" target="gb70pEuvpdJBa86swqlE-14" edge="1">
          <mxGeometry relative="1" as="geometry">
            <mxPoint x="1650.02" y="1259.0434782608695" as="sourcePoint" />
            <mxPoint x="1600.02" y="1292" as="targetPoint" />
          </mxGeometry>
        </mxCell>
        <mxCell id="gb70pEuvpdJBa86swqlE-21" value="" style="edgeStyle=orthogonalEdgeStyle;rounded=1;orthogonalLoop=1;jettySize=auto;html=1;fontFamily=Verdana;fontSize=12;entryX=0.5;entryY=1;entryDx=0;entryDy=0;exitX=0.5;exitY=0;exitDx=0;exitDy=0;" parent="1" source="gb70pEuvpdJBa86swqlE-2" target="gb70pEuvpdJBa86swqlE-6" edge="1">
          <mxGeometry relative="1" as="geometry">
            <mxPoint x="1790.0200000000002" y="1211" as="sourcePoint" />
            <mxPoint x="1860.0200000000002" y="1157" as="targetPoint" />
          </mxGeometry>
        </mxCell>
        <mxCell id="gb70pEuvpdJBa86swqlE-22" value="" style="edgeStyle=orthogonalEdgeStyle;rounded=1;orthogonalLoop=1;jettySize=auto;html=1;fontFamily=Verdana;fontSize=12;entryX=0;entryY=0.5;entryDx=0;entryDy=0;exitX=1;exitY=0.5;exitDx=0;exitDy=0;" parent="1" source="gb70pEuvpdJBa86swqlE-2" target="gb70pEuvpdJBa86swqlE-12" edge="1">
          <mxGeometry relative="1" as="geometry">
            <mxPoint x="1930.02" y="1259" as="sourcePoint" />
            <mxPoint x="1980.02" y="1292.0303030303032" as="targetPoint" />
          </mxGeometry>
        </mxCell>
        <mxCell id="gb70pEuvpdJBa86swqlE-23" value="" style="edgeStyle=orthogonalEdgeStyle;rounded=1;orthogonalLoop=1;jettySize=auto;html=1;fontFamily=Verdana;fontSize=12;entryX=0.5;entryY=0;entryDx=0;entryDy=0;exitX=0.5;exitY=1;exitDx=0;exitDy=0;" parent="1" source="gb70pEuvpdJBa86swqlE-2" target="gb70pEuvpdJBa86swqlE-10" edge="1">
          <mxGeometry relative="1" as="geometry">
            <mxPoint x="1790.0200000000002" y="1307.0000000000002" as="sourcePoint" />
            <mxPoint x="1860.0200000000002" y="1357" as="targetPoint" />
          </mxGeometry>
        </mxCell>
        <mxCell id="gb70pEuvpdJBa86swqlE-30" value="" style="edgeStyle=orthogonalEdgeStyle;rounded=1;orthogonalLoop=1;jettySize=auto;html=1;fontFamily=Verdana;fontSize=12;" parent="1" source="gb70pEuvpdJBa86swqlE-25" target="gb70pEuvpdJBa86swqlE-29" edge="1">
          <mxGeometry relative="1" as="geometry" />
        </mxCell>
        <mxCell id="gb70pEuvpdJBa86swqlE-25" value="Internet" style="whiteSpace=wrap;html=1;fontFamily=Verdana;rounded=0;fillColor=#dae8fc;strokeColor=#6c8ebf;glass=0;sketch=0;shadow=1;" parent="1" vertex="1">
          <mxGeometry x="1520" y="1000" width="120" height="60" as="geometry" />
        </mxCell>
        <mxCell id="gb70pEuvpdJBa86swqlE-33" value="" style="edgeStyle=orthogonalEdgeStyle;rounded=1;orthogonalLoop=1;jettySize=auto;html=1;fontFamily=Verdana;fontSize=12;" parent="1" source="gb70pEuvpdJBa86swqlE-29" target="gb70pEuvpdJBa86swqlE-32" edge="1">
          <mxGeometry relative="1" as="geometry" />
        </mxCell>
        <mxCell id="gb70pEuvpdJBa86swqlE-29" value="Sistema global de redes de computadores&amp;nbsp;" style="whiteSpace=wrap;html=1;fontFamily=Verdana;rounded=0;fillColor=#dae8fc;strokeColor=#6c8ebf;glass=0;sketch=0;shadow=1;" parent="1" vertex="1">
          <mxGeometry x="1510" y="900" width="140" height="70" as="geometry" />
        </mxCell>
        <mxCell id="gb70pEuvpdJBa86swqlE-32" value="Interligadas, utilizam um conjunto próprio de protocolos&amp;nbsp;" style="whiteSpace=wrap;html=1;fontFamily=Verdana;rounded=0;fillColor=#dae8fc;strokeColor=#6c8ebf;glass=0;sketch=0;shadow=1;" parent="1" vertex="1">
          <mxGeometry x="1510" y="800" width="140" height="70" as="geometry" />
        </mxCell>
        <mxCell id="_syeEbmytFuCdj93ZX4R-2" value="" style="edgeStyle=orthogonalEdgeStyle;rounded=1;orthogonalLoop=1;jettySize=auto;html=1;fontFamily=Verdana;fontSize=12;" edge="1" parent="1" source="gb70pEuvpdJBa86swqlE-35" target="_syeEbmytFuCdj93ZX4R-1">
          <mxGeometry relative="1" as="geometry" />
        </mxCell>
        <mxCell id="gb70pEuvpdJBa86swqlE-35" value="Hardware" style="whiteSpace=wrap;html=1;fontFamily=Verdana;rounded=0;fillColor=#f8cecc;strokeColor=#b85450;glass=0;sketch=0;shadow=1;" parent="1" vertex="1">
          <mxGeometry x="1350.02" y="1000" width="120" height="60" as="geometry" />
        </mxCell>
        <mxCell id="gb70pEuvpdJBa86swqlE-40" value="" style="edgeStyle=orthogonalEdgeStyle;rounded=1;orthogonalLoop=1;jettySize=auto;html=1;fontFamily=Verdana;fontSize=12;exitX=0;exitY=0.5;exitDx=0;exitDy=0;entryX=0.5;entryY=1;entryDx=0;entryDy=0;" parent="1" source="gb70pEuvpdJBa86swqlE-6" target="gb70pEuvpdJBa86swqlE-35" edge="1">
          <mxGeometry relative="1" as="geometry">
            <mxPoint x="1670.02" y="1132" as="sourcePoint" />
            <mxPoint x="1589.9765217391305" y="1042" as="targetPoint" />
          </mxGeometry>
        </mxCell>
        <mxCell id="_syeEbmytFuCdj93ZX4R-6" value="" style="edgeStyle=orthogonalEdgeStyle;rounded=1;orthogonalLoop=1;jettySize=auto;html=1;fontFamily=Verdana;fontSize=12;" edge="1" parent="1" source="gb70pEuvpdJBa86swqlE-42" target="_syeEbmytFuCdj93ZX4R-5">
          <mxGeometry relative="1" as="geometry" />
        </mxCell>
        <mxCell id="gb70pEuvpdJBa86swqlE-42" value="Software" style="whiteSpace=wrap;html=1;fontFamily=Verdana;rounded=0;fillColor=#fff2cc;strokeColor=#d6b656;glass=0;sketch=0;shadow=1;" parent="1" vertex="1">
          <mxGeometry x="1180.02" y="1000" width="120" height="60" as="geometry" />
        </mxCell>
        <mxCell id="gb70pEuvpdJBa86swqlE-46" value="" style="edgeStyle=orthogonalEdgeStyle;rounded=1;orthogonalLoop=1;jettySize=auto;html=1;fontFamily=Verdana;fontSize=12;exitX=0;exitY=0.5;exitDx=0;exitDy=0;entryX=0.5;entryY=1;entryDx=0;entryDy=0;" parent="1" source="gb70pEuvpdJBa86swqlE-6" target="gb70pEuvpdJBa86swqlE-42" edge="1">
          <mxGeometry relative="1" as="geometry">
            <mxPoint x="1670.02" y="1132" as="sourcePoint" />
            <mxPoint x="1420.02" y="1042" as="targetPoint" />
            <Array as="points">
              <mxPoint x="1240.02" y="1122" />
            </Array>
          </mxGeometry>
        </mxCell>
        <mxCell id="_syeEbmytFuCdj93ZX4R-10" value="" style="edgeStyle=orthogonalEdgeStyle;rounded=1;orthogonalLoop=1;jettySize=auto;html=1;fontFamily=Verdana;fontSize=12;" edge="1" parent="1" source="gb70pEuvpdJBa86swqlE-48" target="_syeEbmytFuCdj93ZX4R-9">
          <mxGeometry relative="1" as="geometry" />
        </mxCell>
        <mxCell id="gb70pEuvpdJBa86swqlE-48" value="WWW" style="whiteSpace=wrap;html=1;fontFamily=Verdana;rounded=0;glass=0;sketch=0;shadow=1;" parent="1" vertex="1">
          <mxGeometry x="1010" y="1000" width="120" height="60" as="geometry" />
        </mxCell>
        <mxCell id="gb70pEuvpdJBa86swqlE-52" value="" style="edgeStyle=orthogonalEdgeStyle;rounded=1;orthogonalLoop=1;jettySize=auto;html=1;fontFamily=Verdana;fontSize=12;exitX=0;exitY=0.5;exitDx=0;exitDy=0;entryX=0.5;entryY=1;entryDx=0;entryDy=0;" parent="1" edge="1" target="gb70pEuvpdJBa86swqlE-48">
          <mxGeometry relative="1" as="geometry">
            <mxPoint x="1480.02" y="1122" as="sourcePoint" />
            <mxPoint x="1060" y="1060" as="targetPoint" />
            <Array as="points">
              <mxPoint x="1070" y="1122" />
            </Array>
          </mxGeometry>
        </mxCell>
        <mxCell id="_syeEbmytFuCdj93ZX4R-21" value="" style="edgeStyle=orthogonalEdgeStyle;rounded=1;orthogonalLoop=1;jettySize=auto;html=1;fontFamily=Verdana;fontSize=12;" edge="1" parent="1" source="gb70pEuvpdJBa86swqlE-53" target="_syeEbmytFuCdj93ZX4R-20">
          <mxGeometry relative="1" as="geometry" />
        </mxCell>
        <mxCell id="gb70pEuvpdJBa86swqlE-53" value="HTML" style="whiteSpace=wrap;html=1;fontFamily=Verdana;rounded=0;fillColor=#ffe6cc;strokeColor=#d79b00;glass=0;sketch=0;shadow=1;" parent="1" vertex="1">
          <mxGeometry x="1520.02" y="540" width="120" height="60" as="geometry" />
        </mxCell>
        <mxCell id="_syeEbmytFuCdj93ZX4R-19" value="" style="edgeStyle=orthogonalEdgeStyle;rounded=1;orthogonalLoop=1;jettySize=auto;html=1;fontFamily=Verdana;fontSize=12;" edge="1" parent="1" source="gb70pEuvpdJBa86swqlE-54" target="_syeEbmytFuCdj93ZX4R-18">
          <mxGeometry relative="1" as="geometry" />
        </mxCell>
        <mxCell id="gb70pEuvpdJBa86swqlE-54" value="Algoritmos" style="whiteSpace=wrap;html=1;fontFamily=Verdana;rounded=0;fillColor=#d5e8d4;strokeColor=#82b366;glass=0;sketch=0;shadow=1;" parent="1" vertex="1">
          <mxGeometry x="1350.02" y="540" width="120" height="60" as="geometry" />
        </mxCell>
        <mxCell id="gb70pEuvpdJBa86swqlE-56" value="" style="edgeStyle=orthogonalEdgeStyle;rounded=1;orthogonalLoop=1;jettySize=auto;html=1;fontFamily=Verdana;fontSize=12;entryX=0.5;entryY=0;entryDx=0;entryDy=0;exitX=0.5;exitY=0;exitDx=0;exitDy=0;" parent="1" source="gb70pEuvpdJBa86swqlE-6" target="gb70pEuvpdJBa86swqlE-53" edge="1">
          <mxGeometry relative="1" as="geometry">
            <mxPoint x="1713.02" y="1090" as="sourcePoint" />
            <mxPoint x="1590.02" y="1042" as="targetPoint" />
            <Array as="points">
              <mxPoint x="1710" y="490" />
              <mxPoint x="1580" y="490" />
            </Array>
          </mxGeometry>
        </mxCell>
        <mxCell id="gb70pEuvpdJBa86swqlE-1805" value="" style="edgeStyle=orthogonalEdgeStyle;rounded=1;orthogonalLoop=1;jettySize=auto;html=1;fontFamily=Verdana;fontSize=12;entryX=0.5;entryY=0;entryDx=0;entryDy=0;exitX=0.5;exitY=0;exitDx=0;exitDy=0;" parent="1" source="gb70pEuvpdJBa86swqlE-6" target="gb70pEuvpdJBa86swqlE-54" edge="1">
          <mxGeometry relative="1" as="geometry">
            <mxPoint x="1720.02" y="1107" as="sourcePoint" />
            <mxPoint x="1590.02" y="550" as="targetPoint" />
            <Array as="points">
              <mxPoint x="1710" y="490" />
              <mxPoint x="1410" y="490" />
            </Array>
          </mxGeometry>
        </mxCell>
        <mxCell id="_syeEbmytFuCdj93ZX4R-14" value="" style="edgeStyle=orthogonalEdgeStyle;rounded=1;orthogonalLoop=1;jettySize=auto;html=1;fontFamily=Verdana;fontSize=12;" edge="1" parent="1" source="gb70pEuvpdJBa86swqlE-1811" target="_syeEbmytFuCdj93ZX4R-13">
          <mxGeometry relative="1" as="geometry" />
        </mxCell>
        <mxCell id="gb70pEuvpdJBa86swqlE-1811" value="Code.org" style="whiteSpace=wrap;html=1;fontFamily=Verdana;rounded=0;fillColor=#f5f5f5;fontColor=#333333;strokeColor=#666666;glass=0;sketch=0;shadow=1;" parent="1" vertex="1">
          <mxGeometry x="1180.02" y="540" width="120" height="60" as="geometry" />
        </mxCell>
        <mxCell id="gb70pEuvpdJBa86swqlE-1818" value="" style="edgeStyle=orthogonalEdgeStyle;rounded=1;orthogonalLoop=1;jettySize=auto;html=1;fontFamily=Verdana;fontSize=12;" parent="1" source="gb70pEuvpdJBa86swqlE-1812" target="gb70pEuvpdJBa86swqlE-1817" edge="1">
          <mxGeometry relative="1" as="geometry" />
        </mxCell>
        <mxCell id="gb70pEuvpdJBa86swqlE-1812" value="Soft Skills" style="whiteSpace=wrap;html=1;fontFamily=Verdana;rounded=0;fillColor=#e1d5e7;strokeColor=#9673a6;glass=0;sketch=0;shadow=1;" parent="1" vertex="1">
          <mxGeometry x="1010" y="540" width="120" height="60" as="geometry" />
        </mxCell>
        <mxCell id="gb70pEuvpdJBa86swqlE-1815" value="" style="edgeStyle=orthogonalEdgeStyle;rounded=1;orthogonalLoop=1;jettySize=auto;html=1;fontFamily=Verdana;fontSize=12;entryX=0.5;entryY=0;entryDx=0;entryDy=0;exitX=0.5;exitY=0;exitDx=0;exitDy=0;" parent="1" source="gb70pEuvpdJBa86swqlE-6" target="gb70pEuvpdJBa86swqlE-1811" edge="1">
          <mxGeometry relative="1" as="geometry">
            <mxPoint x="1710" y="1100" as="sourcePoint" />
            <mxPoint x="1420.02" y="550" as="targetPoint" />
            <Array as="points">
              <mxPoint x="1710" y="490" />
              <mxPoint x="1240" y="490" />
            </Array>
          </mxGeometry>
        </mxCell>
        <mxCell id="gb70pEuvpdJBa86swqlE-1816" value="" style="edgeStyle=orthogonalEdgeStyle;rounded=1;orthogonalLoop=1;jettySize=auto;html=1;fontFamily=Verdana;fontSize=12;entryX=0.5;entryY=0;entryDx=0;entryDy=0;exitX=0.5;exitY=0;exitDx=0;exitDy=0;" parent="1" source="gb70pEuvpdJBa86swqlE-6" edge="1" target="gb70pEuvpdJBa86swqlE-1812">
          <mxGeometry relative="1" as="geometry">
            <mxPoint x="1540.02" y="1097" as="sourcePoint" />
            <mxPoint x="1060" y="540" as="targetPoint" />
            <Array as="points">
              <mxPoint x="1710" y="490" />
              <mxPoint x="1070" y="490" />
            </Array>
          </mxGeometry>
        </mxCell>
        <mxCell id="gb70pEuvpdJBa86swqlE-1820" value="" style="edgeStyle=orthogonalEdgeStyle;rounded=1;orthogonalLoop=1;jettySize=auto;html=1;fontFamily=Verdana;fontSize=12;" parent="1" source="gb70pEuvpdJBa86swqlE-1817" target="gb70pEuvpdJBa86swqlE-1819" edge="1">
          <mxGeometry relative="1" as="geometry" />
        </mxCell>
        <mxCell id="gb70pEuvpdJBa86swqlE-1817" value="São habilidades comportamentais&amp;nbsp;&amp;nbsp;" style="whiteSpace=wrap;html=1;fontFamily=Verdana;rounded=0;fillColor=#e1d5e7;strokeColor=#9673a6;glass=0;sketch=0;shadow=1;" parent="1" vertex="1">
          <mxGeometry x="1010" y="620" width="120" height="60" as="geometry" />
        </mxCell>
        <mxCell id="gb70pEuvpdJBa86swqlE-1819" value="Ligadas a como um profissional lida com o outro e consigo mesmo" style="whiteSpace=wrap;html=1;fontFamily=Verdana;rounded=0;fillColor=#e1d5e7;strokeColor=#9673a6;glass=0;sketch=0;shadow=1;" parent="1" vertex="1">
          <mxGeometry x="1000" y="704" width="140" height="68" as="geometry" />
        </mxCell>
        <mxCell id="_syeEbmytFuCdj93ZX4R-4" value="" style="edgeStyle=orthogonalEdgeStyle;rounded=1;orthogonalLoop=1;jettySize=auto;html=1;fontFamily=Verdana;fontSize=12;" edge="1" parent="1" source="_syeEbmytFuCdj93ZX4R-1" target="_syeEbmytFuCdj93ZX4R-3">
          <mxGeometry relative="1" as="geometry" />
        </mxCell>
        <mxCell id="_syeEbmytFuCdj93ZX4R-1" value="Equipamentos Físicos" style="whiteSpace=wrap;html=1;fontFamily=Verdana;rounded=0;fillColor=#f8cecc;strokeColor=#b85450;glass=0;sketch=0;shadow=1;" vertex="1" parent="1">
          <mxGeometry x="1350.02" y="905" width="120" height="60" as="geometry" />
        </mxCell>
        <mxCell id="_syeEbmytFuCdj93ZX4R-3" value="Mouses, teclados, cabos de rede, impressora" style="whiteSpace=wrap;html=1;fontFamily=Verdana;rounded=0;fillColor=#f8cecc;strokeColor=#b85450;glass=0;sketch=0;shadow=1;" vertex="1" parent="1">
          <mxGeometry x="1350.02" y="805" width="120" height="60" as="geometry" />
        </mxCell>
        <mxCell id="_syeEbmytFuCdj93ZX4R-8" value="" style="edgeStyle=orthogonalEdgeStyle;rounded=1;orthogonalLoop=1;jettySize=auto;html=1;fontFamily=Verdana;fontSize=12;" edge="1" parent="1" source="_syeEbmytFuCdj93ZX4R-5" target="_syeEbmytFuCdj93ZX4R-7">
          <mxGeometry relative="1" as="geometry" />
        </mxCell>
        <mxCell id="_syeEbmytFuCdj93ZX4R-5" value="Conjunto de instruções que devem ser seguidas e executadas por um mecanismo" style="whiteSpace=wrap;html=1;fontFamily=Verdana;rounded=0;fillColor=#fff2cc;strokeColor=#d6b656;glass=0;sketch=0;shadow=1;" vertex="1" parent="1">
          <mxGeometry x="1170.03" y="892.5" width="139.98" height="85" as="geometry" />
        </mxCell>
        <mxCell id="_syeEbmytFuCdj93ZX4R-7" value="Word, Excel, Paint, Bloco de Notas..." style="whiteSpace=wrap;html=1;fontFamily=Verdana;rounded=0;fillColor=#fff2cc;strokeColor=#d6b656;glass=0;sketch=0;shadow=1;" vertex="1" parent="1">
          <mxGeometry x="1170.05" y="805" width="139.96" height="60" as="geometry" />
        </mxCell>
        <mxCell id="_syeEbmytFuCdj93ZX4R-12" value="" style="edgeStyle=orthogonalEdgeStyle;rounded=1;orthogonalLoop=1;jettySize=auto;html=1;fontFamily=Verdana;fontSize=12;" edge="1" parent="1" source="_syeEbmytFuCdj93ZX4R-9" target="_syeEbmytFuCdj93ZX4R-11">
          <mxGeometry relative="1" as="geometry" />
        </mxCell>
        <mxCell id="_syeEbmytFuCdj93ZX4R-9" value="World Wide Web (WWW)" style="whiteSpace=wrap;html=1;fontFamily=Verdana;rounded=0;glass=0;sketch=0;shadow=1;" vertex="1" parent="1">
          <mxGeometry x="1010" y="905" width="120" height="60" as="geometry" />
        </mxCell>
        <mxCell id="_syeEbmytFuCdj93ZX4R-11" value="Permite o acesso as informações apresentadas no formato de hipertexto" style="whiteSpace=wrap;html=1;fontFamily=Verdana;rounded=0;glass=0;sketch=0;shadow=1;" vertex="1" parent="1">
          <mxGeometry x="1005" y="792.5" width="130" height="85" as="geometry" />
        </mxCell>
        <mxCell id="_syeEbmytFuCdj93ZX4R-17" value="" style="edgeStyle=orthogonalEdgeStyle;rounded=1;orthogonalLoop=1;jettySize=auto;html=1;fontFamily=Verdana;fontSize=12;" edge="1" parent="1" source="_syeEbmytFuCdj93ZX4R-13" target="_syeEbmytFuCdj93ZX4R-16">
          <mxGeometry relative="1" as="geometry" />
        </mxCell>
        <mxCell id="_syeEbmytFuCdj93ZX4R-13" value="Organização sem fins lucrativos" style="whiteSpace=wrap;html=1;fontFamily=Verdana;rounded=0;fillColor=#f5f5f5;fontColor=#333333;strokeColor=#666666;glass=0;sketch=0;shadow=1;" vertex="1" parent="1">
          <mxGeometry x="1180.02" y="620" width="120" height="60" as="geometry" />
        </mxCell>
        <mxCell id="_syeEbmytFuCdj93ZX4R-16" value="Dedicada à expansão acesso à informática nas escolas" style="whiteSpace=wrap;html=1;fontFamily=Verdana;rounded=0;fillColor=#f5f5f5;fontColor=#333333;strokeColor=#666666;glass=0;sketch=0;shadow=1;" vertex="1" parent="1">
          <mxGeometry x="1175.03" y="704" width="129.98" height="66" as="geometry" />
        </mxCell>
        <mxCell id="_syeEbmytFuCdj93ZX4R-18" value="Conjuntos de regras e procedimentos lógicos" style="whiteSpace=wrap;html=1;fontFamily=Verdana;rounded=0;fillColor=#d5e8d4;strokeColor=#82b366;glass=0;sketch=0;shadow=1;" vertex="1" parent="1">
          <mxGeometry x="1350.02" y="650" width="119.98" height="70" as="geometry" />
        </mxCell>
        <mxCell id="_syeEbmytFuCdj93ZX4R-27" value="" style="edgeStyle=orthogonalEdgeStyle;rounded=1;orthogonalLoop=1;jettySize=auto;html=1;fontFamily=Verdana;fontSize=12;" edge="1" parent="1" source="_syeEbmytFuCdj93ZX4R-20" target="_syeEbmytFuCdj93ZX4R-26">
          <mxGeometry relative="1" as="geometry" />
        </mxCell>
        <mxCell id="_syeEbmytFuCdj93ZX4R-20" value="HyperText Markup Language" style="whiteSpace=wrap;html=1;fontFamily=Verdana;rounded=0;fillColor=#ffe6cc;strokeColor=#d79b00;glass=0;sketch=0;shadow=1;" vertex="1" parent="1">
          <mxGeometry x="1530.02" y="620" width="100" height="70" as="geometry" />
        </mxCell>
        <mxCell id="_syeEbmytFuCdj93ZX4R-26" value="Linguagem de marcação&amp;nbsp;" style="whiteSpace=wrap;html=1;fontFamily=Verdana;rounded=0;fillColor=#ffe6cc;strokeColor=#d79b00;glass=0;sketch=0;shadow=1;" vertex="1" parent="1">
          <mxGeometry x="1522.5" y="713" width="114.99" height="50" as="geometry" />
        </mxCell>
        <mxCell id="_syeEbmytFuCdj93ZX4R-29" value="" style="edgeStyle=orthogonalEdgeStyle;rounded=1;orthogonalLoop=1;jettySize=auto;html=1;fontFamily=Verdana;fontSize=12;" edge="1" parent="1" source="_syeEbmytFuCdj93ZX4R-30" target="_syeEbmytFuCdj93ZX4R-32">
          <mxGeometry relative="1" as="geometry" />
        </mxCell>
        <mxCell id="_syeEbmytFuCdj93ZX4R-30" value="Internet" style="whiteSpace=wrap;html=1;fontFamily=Verdana;rounded=0;fillColor=#dae8fc;strokeColor=#6c8ebf;glass=0;sketch=0;shadow=1;" vertex="1" parent="1">
          <mxGeometry x="2470" y="1010" width="120" height="60" as="geometry" />
        </mxCell>
        <mxCell id="_syeEbmytFuCdj93ZX4R-31" value="" style="edgeStyle=orthogonalEdgeStyle;rounded=1;orthogonalLoop=1;jettySize=auto;html=1;fontFamily=Verdana;fontSize=12;" edge="1" parent="1" source="_syeEbmytFuCdj93ZX4R-32" target="_syeEbmytFuCdj93ZX4R-33">
          <mxGeometry relative="1" as="geometry" />
        </mxCell>
        <mxCell id="_syeEbmytFuCdj93ZX4R-32" value="Sistema global de redes de computadores&amp;nbsp;" style="whiteSpace=wrap;html=1;fontFamily=Verdana;rounded=0;fillColor=#dae8fc;strokeColor=#6c8ebf;glass=0;sketch=0;shadow=1;" vertex="1" parent="1">
          <mxGeometry x="2460" y="910" width="140" height="70" as="geometry" />
        </mxCell>
        <mxCell id="_syeEbmytFuCdj93ZX4R-33" value="Interligadas, utilizam um conjunto próprio de protocolos&amp;nbsp;" style="whiteSpace=wrap;html=1;fontFamily=Verdana;rounded=0;fillColor=#dae8fc;strokeColor=#6c8ebf;glass=0;sketch=0;shadow=1;" vertex="1" parent="1">
          <mxGeometry x="2460" y="810" width="140" height="70" as="geometry" />
        </mxCell>
        <mxCell id="_syeEbmytFuCdj93ZX4R-34" value="" style="edgeStyle=orthogonalEdgeStyle;rounded=1;orthogonalLoop=1;jettySize=auto;html=1;fontFamily=Verdana;fontSize=12;" edge="1" parent="1" source="_syeEbmytFuCdj93ZX4R-35" target="_syeEbmytFuCdj93ZX4R-59">
          <mxGeometry relative="1" as="geometry" />
        </mxCell>
        <mxCell id="_syeEbmytFuCdj93ZX4R-35" value="Hardware" style="whiteSpace=wrap;html=1;fontFamily=Verdana;rounded=0;fillColor=#f8cecc;strokeColor=#b85450;glass=0;sketch=0;shadow=1;" vertex="1" parent="1">
          <mxGeometry x="2300.02" y="1010" width="120" height="60" as="geometry" />
        </mxCell>
        <mxCell id="_syeEbmytFuCdj93ZX4R-37" value="" style="edgeStyle=orthogonalEdgeStyle;rounded=1;orthogonalLoop=1;jettySize=auto;html=1;fontFamily=Verdana;fontSize=12;" edge="1" parent="1" source="_syeEbmytFuCdj93ZX4R-38" target="_syeEbmytFuCdj93ZX4R-62">
          <mxGeometry relative="1" as="geometry" />
        </mxCell>
        <mxCell id="_syeEbmytFuCdj93ZX4R-38" value="Software" style="whiteSpace=wrap;html=1;fontFamily=Verdana;rounded=0;fillColor=#fff2cc;strokeColor=#d6b656;glass=0;sketch=0;shadow=1;" vertex="1" parent="1">
          <mxGeometry x="2130.02" y="1010" width="120" height="60" as="geometry" />
        </mxCell>
        <mxCell id="_syeEbmytFuCdj93ZX4R-40" value="" style="edgeStyle=orthogonalEdgeStyle;rounded=1;orthogonalLoop=1;jettySize=auto;html=1;fontFamily=Verdana;fontSize=12;" edge="1" parent="1" source="_syeEbmytFuCdj93ZX4R-41" target="_syeEbmytFuCdj93ZX4R-65">
          <mxGeometry relative="1" as="geometry" />
        </mxCell>
        <mxCell id="_syeEbmytFuCdj93ZX4R-41" value="WWW" style="whiteSpace=wrap;html=1;fontFamily=Verdana;rounded=0;glass=0;sketch=0;shadow=1;" vertex="1" parent="1">
          <mxGeometry x="1960" y="1010" width="120" height="60" as="geometry" />
        </mxCell>
        <mxCell id="_syeEbmytFuCdj93ZX4R-43" value="" style="edgeStyle=orthogonalEdgeStyle;rounded=1;orthogonalLoop=1;jettySize=auto;html=1;fontFamily=Verdana;fontSize=12;" edge="1" parent="1" source="_syeEbmytFuCdj93ZX4R-44" target="_syeEbmytFuCdj93ZX4R-72">
          <mxGeometry relative="1" as="geometry" />
        </mxCell>
        <mxCell id="_syeEbmytFuCdj93ZX4R-44" value="HTML" style="whiteSpace=wrap;html=1;fontFamily=Verdana;rounded=0;fillColor=#ffe6cc;strokeColor=#d79b00;glass=0;sketch=0;shadow=1;" vertex="1" parent="1">
          <mxGeometry x="2470.02" y="550" width="120" height="60" as="geometry" />
        </mxCell>
        <mxCell id="_syeEbmytFuCdj93ZX4R-45" value="" style="edgeStyle=orthogonalEdgeStyle;rounded=1;orthogonalLoop=1;jettySize=auto;html=1;fontFamily=Verdana;fontSize=12;" edge="1" parent="1" source="_syeEbmytFuCdj93ZX4R-46" target="_syeEbmytFuCdj93ZX4R-70">
          <mxGeometry relative="1" as="geometry" />
        </mxCell>
        <mxCell id="_syeEbmytFuCdj93ZX4R-46" value="Algoritmos" style="whiteSpace=wrap;html=1;fontFamily=Verdana;rounded=0;fillColor=#d5e8d4;strokeColor=#82b366;glass=0;sketch=0;shadow=1;" vertex="1" parent="1">
          <mxGeometry x="2300.02" y="550" width="120" height="60" as="geometry" />
        </mxCell>
        <mxCell id="_syeEbmytFuCdj93ZX4R-49" value="" style="edgeStyle=orthogonalEdgeStyle;rounded=1;orthogonalLoop=1;jettySize=auto;html=1;fontFamily=Verdana;fontSize=12;" edge="1" parent="1" source="_syeEbmytFuCdj93ZX4R-50" target="_syeEbmytFuCdj93ZX4R-68">
          <mxGeometry relative="1" as="geometry" />
        </mxCell>
        <mxCell id="_syeEbmytFuCdj93ZX4R-50" value="Code.org" style="whiteSpace=wrap;html=1;fontFamily=Verdana;rounded=0;fillColor=#f5f5f5;fontColor=#333333;strokeColor=#666666;glass=0;sketch=0;shadow=1;" vertex="1" parent="1">
          <mxGeometry x="2130.02" y="550" width="120" height="60" as="geometry" />
        </mxCell>
        <mxCell id="_syeEbmytFuCdj93ZX4R-51" value="" style="edgeStyle=orthogonalEdgeStyle;rounded=1;orthogonalLoop=1;jettySize=auto;html=1;fontFamily=Verdana;fontSize=12;" edge="1" parent="1" source="_syeEbmytFuCdj93ZX4R-52" target="_syeEbmytFuCdj93ZX4R-56">
          <mxGeometry relative="1" as="geometry" />
        </mxCell>
        <mxCell id="_syeEbmytFuCdj93ZX4R-52" value="Soft Skills" style="whiteSpace=wrap;html=1;fontFamily=Verdana;rounded=0;fillColor=#e1d5e7;strokeColor=#9673a6;glass=0;sketch=0;shadow=1;" vertex="1" parent="1">
          <mxGeometry x="1960" y="550" width="120" height="60" as="geometry" />
        </mxCell>
        <mxCell id="_syeEbmytFuCdj93ZX4R-55" value="" style="edgeStyle=orthogonalEdgeStyle;rounded=1;orthogonalLoop=1;jettySize=auto;html=1;fontFamily=Verdana;fontSize=12;" edge="1" parent="1" source="_syeEbmytFuCdj93ZX4R-56" target="_syeEbmytFuCdj93ZX4R-57">
          <mxGeometry relative="1" as="geometry" />
        </mxCell>
        <mxCell id="_syeEbmytFuCdj93ZX4R-56" value="São habilidades comportamentais&amp;nbsp;&amp;nbsp;" style="whiteSpace=wrap;html=1;fontFamily=Verdana;rounded=0;fillColor=#e1d5e7;strokeColor=#9673a6;glass=0;sketch=0;shadow=1;" vertex="1" parent="1">
          <mxGeometry x="1960" y="630" width="120" height="60" as="geometry" />
        </mxCell>
        <mxCell id="_syeEbmytFuCdj93ZX4R-57" value="Ligadas a como um profissional lida com o outro e consigo mesmo" style="whiteSpace=wrap;html=1;fontFamily=Verdana;rounded=0;fillColor=#e1d5e7;strokeColor=#9673a6;glass=0;sketch=0;shadow=1;" vertex="1" parent="1">
          <mxGeometry x="1950" y="714" width="140" height="68" as="geometry" />
        </mxCell>
        <mxCell id="_syeEbmytFuCdj93ZX4R-58" value="" style="edgeStyle=orthogonalEdgeStyle;rounded=1;orthogonalLoop=1;jettySize=auto;html=1;fontFamily=Verdana;fontSize=12;" edge="1" parent="1" source="_syeEbmytFuCdj93ZX4R-59" target="_syeEbmytFuCdj93ZX4R-60">
          <mxGeometry relative="1" as="geometry" />
        </mxCell>
        <mxCell id="_syeEbmytFuCdj93ZX4R-59" value="Equipamentos Físicos" style="whiteSpace=wrap;html=1;fontFamily=Verdana;rounded=0;fillColor=#f8cecc;strokeColor=#b85450;glass=0;sketch=0;shadow=1;" vertex="1" parent="1">
          <mxGeometry x="2300.02" y="915" width="120" height="60" as="geometry" />
        </mxCell>
        <mxCell id="_syeEbmytFuCdj93ZX4R-60" value="Mouses, teclados, cabos de rede, impressora" style="whiteSpace=wrap;html=1;fontFamily=Verdana;rounded=0;fillColor=#f8cecc;strokeColor=#b85450;glass=0;sketch=0;shadow=1;" vertex="1" parent="1">
          <mxGeometry x="2300.02" y="815" width="120" height="60" as="geometry" />
        </mxCell>
        <mxCell id="_syeEbmytFuCdj93ZX4R-61" value="" style="edgeStyle=orthogonalEdgeStyle;rounded=1;orthogonalLoop=1;jettySize=auto;html=1;fontFamily=Verdana;fontSize=12;" edge="1" parent="1" source="_syeEbmytFuCdj93ZX4R-62" target="_syeEbmytFuCdj93ZX4R-63">
          <mxGeometry relative="1" as="geometry" />
        </mxCell>
        <mxCell id="_syeEbmytFuCdj93ZX4R-62" value="Conjunto de instruções que devem ser seguidas e executadas por um mecanismo" style="whiteSpace=wrap;html=1;fontFamily=Verdana;rounded=0;fillColor=#fff2cc;strokeColor=#d6b656;glass=0;sketch=0;shadow=1;" vertex="1" parent="1">
          <mxGeometry x="2120.03" y="902.5" width="139.98" height="85" as="geometry" />
        </mxCell>
        <mxCell id="_syeEbmytFuCdj93ZX4R-63" value="Word, Excel, Paint, Bloco de Notas..." style="whiteSpace=wrap;html=1;fontFamily=Verdana;rounded=0;fillColor=#fff2cc;strokeColor=#d6b656;glass=0;sketch=0;shadow=1;" vertex="1" parent="1">
          <mxGeometry x="2120.0499999999997" y="815" width="139.96" height="60" as="geometry" />
        </mxCell>
        <mxCell id="_syeEbmytFuCdj93ZX4R-64" value="" style="edgeStyle=orthogonalEdgeStyle;rounded=1;orthogonalLoop=1;jettySize=auto;html=1;fontFamily=Verdana;fontSize=12;" edge="1" parent="1" source="_syeEbmytFuCdj93ZX4R-65" target="_syeEbmytFuCdj93ZX4R-66">
          <mxGeometry relative="1" as="geometry" />
        </mxCell>
        <mxCell id="_syeEbmytFuCdj93ZX4R-65" value="World Wide Web (WWW)" style="whiteSpace=wrap;html=1;fontFamily=Verdana;rounded=0;glass=0;sketch=0;shadow=1;" vertex="1" parent="1">
          <mxGeometry x="1960" y="915" width="120" height="60" as="geometry" />
        </mxCell>
        <mxCell id="_syeEbmytFuCdj93ZX4R-66" value="Permite o acesso as informações apresentadas no formato de hipertexto" style="whiteSpace=wrap;html=1;fontFamily=Verdana;rounded=0;glass=0;sketch=0;shadow=1;" vertex="1" parent="1">
          <mxGeometry x="1955" y="802.5" width="130" height="85" as="geometry" />
        </mxCell>
        <mxCell id="_syeEbmytFuCdj93ZX4R-67" value="" style="edgeStyle=orthogonalEdgeStyle;rounded=1;orthogonalLoop=1;jettySize=auto;html=1;fontFamily=Verdana;fontSize=12;" edge="1" parent="1" source="_syeEbmytFuCdj93ZX4R-68" target="_syeEbmytFuCdj93ZX4R-69">
          <mxGeometry relative="1" as="geometry" />
        </mxCell>
        <mxCell id="_syeEbmytFuCdj93ZX4R-68" value="Organização sem fins lucrativos" style="whiteSpace=wrap;html=1;fontFamily=Verdana;rounded=0;fillColor=#f5f5f5;fontColor=#333333;strokeColor=#666666;glass=0;sketch=0;shadow=1;" vertex="1" parent="1">
          <mxGeometry x="2130.02" y="630" width="120" height="60" as="geometry" />
        </mxCell>
        <mxCell id="_syeEbmytFuCdj93ZX4R-69" value="Dedicada à expansão acesso à informática nas escolas" style="whiteSpace=wrap;html=1;fontFamily=Verdana;rounded=0;fillColor=#f5f5f5;fontColor=#333333;strokeColor=#666666;glass=0;sketch=0;shadow=1;" vertex="1" parent="1">
          <mxGeometry x="2125.03" y="714" width="129.98" height="66" as="geometry" />
        </mxCell>
        <mxCell id="_syeEbmytFuCdj93ZX4R-70" value="Conjuntos de regras e procedimentos lógicos" style="whiteSpace=wrap;html=1;fontFamily=Verdana;rounded=0;fillColor=#d5e8d4;strokeColor=#82b366;glass=0;sketch=0;shadow=1;" vertex="1" parent="1">
          <mxGeometry x="2300.02" y="660" width="119.98" height="70" as="geometry" />
        </mxCell>
        <mxCell id="_syeEbmytFuCdj93ZX4R-71" value="" style="edgeStyle=orthogonalEdgeStyle;rounded=1;orthogonalLoop=1;jettySize=auto;html=1;fontFamily=Verdana;fontSize=12;" edge="1" parent="1" source="_syeEbmytFuCdj93ZX4R-72" target="_syeEbmytFuCdj93ZX4R-73">
          <mxGeometry relative="1" as="geometry" />
        </mxCell>
        <mxCell id="_syeEbmytFuCdj93ZX4R-72" value="HyperText Markup Language" style="whiteSpace=wrap;html=1;fontFamily=Verdana;rounded=0;fillColor=#ffe6cc;strokeColor=#d79b00;glass=0;sketch=0;shadow=1;" vertex="1" parent="1">
          <mxGeometry x="2480.02" y="630" width="100" height="70" as="geometry" />
        </mxCell>
        <mxCell id="_syeEbmytFuCdj93ZX4R-73" value="Linguagem de marcação&amp;nbsp;" style="whiteSpace=wrap;html=1;fontFamily=Verdana;rounded=0;fillColor=#ffe6cc;strokeColor=#d79b00;glass=0;sketch=0;shadow=1;" vertex="1" parent="1">
          <mxGeometry x="2472.5" y="723" width="114.99" height="50" as="geometry" />
        </mxCell>
        <mxCell id="_syeEbmytFuCdj93ZX4R-77" value="" style="edgeStyle=orthogonalEdgeStyle;rounded=1;orthogonalLoop=1;jettySize=auto;html=1;fontFamily=Verdana;fontSize=12;entryX=0.5;entryY=1;entryDx=0;entryDy=0;exitX=1;exitY=0.5;exitDx=0;exitDy=0;" edge="1" parent="1" source="gb70pEuvpdJBa86swqlE-9" target="_syeEbmytFuCdj93ZX4R-38">
          <mxGeometry relative="1" as="geometry">
            <mxPoint x="1910.02" y="1132" as="sourcePoint" />
            <mxPoint x="2030" y="1080" as="targetPoint" />
            <Array as="points">
              <mxPoint x="2190" y="1122" />
            </Array>
          </mxGeometry>
        </mxCell>
        <mxCell id="_syeEbmytFuCdj93ZX4R-79" value="" style="edgeStyle=orthogonalEdgeStyle;rounded=1;orthogonalLoop=1;jettySize=auto;html=1;fontFamily=Verdana;fontSize=12;entryX=0.5;entryY=1;entryDx=0;entryDy=0;exitX=1;exitY=0.5;exitDx=0;exitDy=0;" edge="1" parent="1" source="gb70pEuvpdJBa86swqlE-9" target="_syeEbmytFuCdj93ZX4R-35">
          <mxGeometry relative="1" as="geometry">
            <mxPoint x="1910.0199999999995" y="1132" as="sourcePoint" />
            <mxPoint x="2200.0200000000004" y="1080" as="targetPoint" />
            <Array as="points">
              <mxPoint x="2360" y="1122" />
            </Array>
          </mxGeometry>
        </mxCell>
        <mxCell id="_syeEbmytFuCdj93ZX4R-80" value="" style="edgeStyle=orthogonalEdgeStyle;rounded=1;orthogonalLoop=1;jettySize=auto;html=1;fontFamily=Verdana;fontSize=12;entryX=0.5;entryY=1;entryDx=0;entryDy=0;exitX=1;exitY=0.5;exitDx=0;exitDy=0;" edge="1" parent="1" source="gb70pEuvpdJBa86swqlE-9" target="_syeEbmytFuCdj93ZX4R-30">
          <mxGeometry relative="1" as="geometry">
            <mxPoint x="1910.02" y="1132" as="sourcePoint" />
            <mxPoint x="2370.0199999999995" y="1080.0000000000002" as="targetPoint" />
            <Array as="points">
              <mxPoint x="2530" y="1122" />
            </Array>
          </mxGeometry>
        </mxCell>
      </root>
    </mxGraphModel>
  </diagram>
</mxfile>
